<svg width="256" height="256" viewBox="0 0 256 256" fill="none" xmlns="http://www.w3.org/2000/svg">
<rect width="256" height="256" rx="128" fill="#09090B"/>
<path d="M63.5568 134.091V166H43.1705V109.273H62.5227V120.057H63.1136C64.3447 116.462 66.5114 113.643 69.6136 111.599C72.7405 109.556 76.3845 108.534 80.5455 108.534C84.5587 108.534 88.0426 109.457 90.9972 111.304C93.9763 113.126 96.2784 115.637 97.9034 118.838C99.553 122.039 100.366 125.695 100.341 129.807V166H79.9545V134.091C79.9792 131.284 79.2652 129.08 77.8125 127.48C76.3845 125.88 74.3902 125.08 71.8295 125.08C70.1553 125.08 68.6903 125.449 67.4347 126.188C66.2036 126.902 65.2557 127.936 64.5909 129.29C63.9261 130.619 63.5814 132.22 63.5568 134.091ZM147.484 86.8182L123.109 177.375H105.825L130.2 86.8182H147.484ZM193.741 114C193.545 111.538 192.621 109.617 190.972 108.239C189.347 106.86 186.872 106.17 183.548 106.17C181.431 106.17 179.695 106.429 178.341 106.946C177.011 107.438 176.027 108.116 175.386 108.977C174.746 109.839 174.414 110.824 174.389 111.932C174.34 112.843 174.5 113.668 174.869 114.406C175.263 115.12 175.879 115.773 176.716 116.364C177.553 116.93 178.624 117.447 179.929 117.915C181.234 118.383 182.785 118.801 184.582 119.17L190.787 120.5C194.973 121.386 198.555 122.556 201.534 124.009C204.513 125.461 206.951 127.172 208.847 129.142C210.742 131.087 212.134 133.278 213.02 135.716C213.931 138.153 214.399 140.812 214.423 143.693C214.399 148.667 213.155 152.877 210.693 156.324C208.231 159.771 204.71 162.393 200.131 164.19C195.576 165.988 190.098 166.886 183.696 166.886C177.122 166.886 171.385 165.914 166.486 163.969C161.611 162.024 157.819 159.032 155.111 154.994C152.427 150.932 151.073 145.737 151.048 139.409H170.548C170.671 141.723 171.25 143.669 172.284 145.244C173.318 146.82 174.771 148.014 176.642 148.827C178.538 149.639 180.791 150.045 183.401 150.045C185.592 150.045 187.426 149.775 188.903 149.233C190.381 148.691 191.501 147.94 192.264 146.98C193.027 146.02 193.421 144.924 193.446 143.693C193.421 142.536 193.04 141.527 192.301 140.665C191.587 139.778 190.405 138.991 188.756 138.301C187.106 137.587 184.878 136.922 182.071 136.307L174.537 134.682C167.84 133.229 162.559 130.804 158.693 127.406C154.852 123.984 152.944 119.318 152.969 113.409C152.944 108.608 154.224 104.41 156.81 100.815C159.42 97.196 163.027 94.3769 167.631 92.358C172.259 90.339 177.565 89.3295 183.548 89.3295C189.654 89.3295 194.936 90.3513 199.392 92.3949C203.848 94.4384 207.283 97.3191 209.696 101.037C212.134 104.73 213.365 109.051 213.389 114H193.741Z" fill="white"/>
</svg>
